solid OpenSCAD_Model
  facet normal -1 0 0
    outer loop
      vertex -65 -65 -6
      vertex -65 65 6
      vertex -65 65 -6
    endloop
  endfacet
  facet normal -1 -0 0
    outer loop
      vertex -65 65 6
      vertex -65 -65 -6
      vertex -65 -65 6
    endloop
  endfacet
  facet normal 0 0 1
    outer loop
      vertex 65 65 6
      vertex 60 60 6
      vertex 65 -65 6
    endloop
  endfacet
  facet normal 0 0 1
    outer loop
      vertex 65 65 6
      vertex -60 60 6
      vertex 60 60 6
    endloop
  endfacet
  facet normal 0 0 1
    outer loop
      vertex -60 60 6
      vertex -65 65 6
      vertex -60 -60 6
    endloop
  endfacet
  facet normal -0 0 1
    outer loop
      vertex -65 65 6
      vertex -60 60 6
      vertex 65 65 6
    endloop
  endfacet
  facet normal -0 0 1
    outer loop
      vertex 60 -60 6
      vertex 65 -65 6
      vertex 60 60 6
    endloop
  endfacet
  facet normal -0 0 1
    outer loop
      vertex -60 -60 6
      vertex 65 -65 6
      vertex 60 -60 6
    endloop
  endfacet
  facet normal 0 0 1
    outer loop
      vertex -60 -60 6
      vertex -65 -65 6
      vertex 65 -65 6
    endloop
  endfacet
  facet normal 0 0 1
    outer loop
      vertex -65 -65 6
      vertex -60 -60 6
      vertex -65 65 6
    endloop
  endfacet
  facet normal 1 -0 0
    outer loop
      vertex 65 -65 6
      vertex 65 65 -6
      vertex 65 65 6
    endloop
  endfacet
  facet normal 1 0 0
    outer loop
      vertex 65 65 -6
      vertex 65 -65 6
      vertex 65 -65 -6
    endloop
  endfacet
  facet normal 0 0 -1
    outer loop
      vertex 65 -65 -6
      vertex 60 -60 -6
      vertex 65 65 -6
    endloop
  endfacet
  facet normal 0 0 -1
    outer loop
      vertex 65 -65 -6
      vertex -60 -60 -6
      vertex 60 -60 -6
    endloop
  endfacet
  facet normal -0 0 -1
    outer loop
      vertex -60 -60 -6
      vertex -65 -65 -6
      vertex -60 60 -6
    endloop
  endfacet
  facet normal 0 0 -1
    outer loop
      vertex -65 -65 -6
      vertex -60 -60 -6
      vertex 65 -65 -6
    endloop
  endfacet
  facet normal 0 0 -1
    outer loop
      vertex 60 60 -6
      vertex 65 65 -6
      vertex 60 -60 -6
    endloop
  endfacet
  facet normal 0 0 -1
    outer loop
      vertex -60 60 -6
      vertex 65 65 -6
      vertex 60 60 -6
    endloop
  endfacet
  facet normal 0 0 -1
    outer loop
      vertex -60 60 -6
      vertex -65 65 -6
      vertex 65 65 -6
    endloop
  endfacet
  facet normal 0 0 -1
    outer loop
      vertex -65 65 -6
      vertex -60 60 -6
      vertex -65 -65 -6
    endloop
  endfacet
  facet normal 0 -1 0
    outer loop
      vertex -65 -65 -6
      vertex 65 -65 6
      vertex -65 -65 6
    endloop
  endfacet
  facet normal 0 -1 -0
    outer loop
      vertex 65 -65 6
      vertex -65 -65 -6
      vertex 65 -65 -6
    endloop
  endfacet
  facet normal 0 1 -0
    outer loop
      vertex 65 65 -6
      vertex -65 65 6
      vertex 65 65 6
    endloop
  endfacet
  facet normal 0 1 0
    outer loop
      vertex -65 65 6
      vertex 65 65 -6
      vertex -65 65 -6
    endloop
  endfacet
  facet normal 1 -0 0
    outer loop
      vertex -60 -60 6
      vertex -60 60 -6
      vertex -60 60 6
    endloop
  endfacet
  facet normal 1 0 0
    outer loop
      vertex -60 60 -6
      vertex -60 -60 6
      vertex -60 -60 -6
    endloop
  endfacet
  facet normal -1 0 0
    outer loop
      vertex 60 -60 -6
      vertex 60 60 6
      vertex 60 60 -6
    endloop
  endfacet
  facet normal -1 -0 0
    outer loop
      vertex 60 60 6
      vertex 60 -60 -6
      vertex 60 -60 6
    endloop
  endfacet
  facet normal 0 -1 0
    outer loop
      vertex -60 60 -6
      vertex 60 60 6
      vertex -60 60 6
    endloop
  endfacet
  facet normal 0 -1 -0
    outer loop
      vertex 60 60 6
      vertex -60 60 -6
      vertex 60 60 -6
    endloop
  endfacet
  facet normal 0 1 -0
    outer loop
      vertex 60 -60 -6
      vertex -60 -60 6
      vertex 60 -60 6
    endloop
  endfacet
  facet normal 0 1 0
    outer loop
      vertex -60 -60 6
      vertex 60 -60 -6
      vertex -60 -60 -6
    endloop
  endfacet
endsolid OpenSCAD_Model
